# Blender 4.0.2
# www.blender.org
mtllib fences.mtl
o Cube
v -0.406616 -2.564180 3.520589
v -0.190010 2.564180 3.303983
v -0.406616 -2.564180 2.707357
v -0.190010 2.564180 2.923963
v 0.406616 -2.564180 3.520589
v 0.190010 2.564180 3.303983
v 0.406616 -2.564180 2.707357
v 0.190010 2.564180 2.923963
v -0.190010 0.000000 3.303983
v -0.161630 0.000000 2.505765
v 0.161630 0.000000 2.505765
v 0.190010 0.000000 3.303983
v -0.190010 1.282090 3.303983
v -0.190010 1.282090 2.923963
v 0.190010 1.282090 2.923963
v 0.190010 1.282090 3.303983
v -0.190010 1.923135 3.303983
v -0.190010 1.923135 2.923963
v 0.190010 1.923135 2.923963
v 0.190010 1.923135 3.303983
v -0.190010 0.641045 2.923963
v 0.190010 0.641045 2.923963
v 0.190010 0.641045 3.303983
v -0.190010 0.641045 3.303983
v -0.190010 -1.282090 2.923963
v 0.190010 -1.282090 2.923963
v 0.190010 -1.282090 3.303983
v -0.190010 -1.282090 3.303983
v -0.190010 -0.641045 3.303983
v -0.190010 -0.641045 2.923963
v 0.190010 -0.641045 2.923963
v 0.190010 -0.641045 3.303983
v -0.190010 -1.923135 2.923963
v 0.190010 -1.923135 2.923963
v 0.190010 -1.923135 3.303983
v -0.190010 -1.923135 3.303983
v -0.190010 -0.320523 3.303983
v -0.190010 -0.320523 2.923963
v 0.190010 -0.320523 2.923963
v 0.190010 -0.320523 3.303983
v -0.190010 -0.961568 2.923963
v 0.190010 -0.961568 2.923963
v 0.190010 -0.961568 3.303983
v -0.190010 -0.961568 3.303983
v -0.190010 0.320523 2.923963
v 0.190010 0.320523 2.923963
v 0.190010 0.320523 3.303983
v -0.190010 0.320523 3.303983
v -0.190010 0.961568 3.303983
v -0.190010 0.961568 2.923963
v 0.190010 0.961568 2.923963
v 0.190010 0.961568 3.303983
v -0.157549 1.602613 2.548793
v 0.157549 1.602613 2.548793
v 0.190010 1.602613 3.303983
v -0.190010 1.602613 3.303983
v -0.190010 -1.602613 3.303983
v -0.190010 -1.602613 2.923963
v 0.190010 -1.602613 2.923963
v 0.190010 -1.602613 3.303983
v -0.190010 2.243658 3.303983
v -0.190010 2.243658 2.923963
v 0.190010 2.243658 2.923963
v 0.190010 2.243658 3.303983
v -0.190010 -2.243658 2.923963
v 0.190010 -2.243658 2.923963
v 0.190010 -2.243658 3.303983
v -0.190010 -2.243658 3.303983
v -0.190010 -0.320523 0.288722
v 0.190010 -0.320523 0.288722
v 0.161630 0.000000 0.264122
v -0.161630 0.000000 0.264122
v 0.190010 0.961568 0.288722
v -0.190010 0.961568 0.288722
v -0.190010 0.641045 0.288722
v 0.190010 0.641045 0.288722
v 0.157549 1.602613 0.363756
v 0.190010 1.923135 0.288722
v -0.157549 1.602613 0.363756
v -0.190010 1.923135 0.288722
v -0.309207 2.724098 3.423180
v -0.309207 2.724098 2.804766
v 0.309207 2.724098 2.804766
v 0.309207 2.724098 3.423180
v 0.190010 -0.320523 0.000000
v 0.161630 0.000000 0.000000
v -0.190010 -0.320523 0.000000
v -0.161630 0.000000 0.000000
v -0.190010 0.961568 0.000000
v -0.190010 0.641045 0.000000
v 0.190010 0.961568 0.000000
v 0.190010 0.641045 0.000000
v 0.190010 1.923135 0.000000
v -0.190010 1.923135 0.000000
v 0.157549 1.602613 0.000000
v -0.157549 1.602613 0.000000
v -0.406616 -2.564180 -3.520589
v -0.190010 2.564180 -3.303983
v -0.406616 -2.564180 -2.707357
v -0.190010 2.564180 -2.923963
v 0.406616 -2.564180 -3.520589
v 0.190010 2.564180 -3.303983
v 0.406616 -2.564180 -2.707357
v 0.190010 2.564180 -2.923963
v -0.190010 0.000000 -3.303983
v -0.161630 0.000000 -2.505765
v 0.161630 0.000000 -2.505765
v 0.190010 0.000000 -3.303983
v -0.190010 1.282090 -3.303983
v -0.190010 1.282090 -2.923963
v 0.190010 1.282090 -2.923963
v 0.190010 1.282090 -3.303983
v -0.190010 1.923135 -3.303983
v -0.190010 1.923135 -2.923963
v 0.190010 1.923135 -2.923963
v 0.190010 1.923135 -3.303983
v -0.190010 0.641045 -2.923963
v 0.190010 0.641045 -2.923963
v 0.190010 0.641045 -3.303983
v -0.190010 0.641045 -3.303983
v -0.190010 -1.282090 -2.923963
v 0.190010 -1.282090 -2.923963
v 0.190010 -1.282090 -3.303983
v -0.190010 -1.282090 -3.303983
v -0.190010 -0.641045 -3.303983
v -0.190010 -0.641045 -2.923963
v 0.190010 -0.641045 -2.923963
v 0.190010 -0.641045 -3.303983
v -0.190010 -1.923135 -2.923963
v 0.190010 -1.923135 -2.923963
v 0.190010 -1.923135 -3.303983
v -0.190010 -1.923135 -3.303983
v -0.190010 -0.320523 -3.303983
v -0.190010 -0.320523 -2.923963
v 0.190010 -0.320523 -2.923963
v 0.190010 -0.320523 -3.303983
v -0.190010 -0.961568 -2.923963
v 0.190010 -0.961568 -2.923963
v 0.190010 -0.961568 -3.303983
v -0.190010 -0.961568 -3.303983
v -0.190010 0.320523 -2.923963
v 0.190010 0.320523 -2.923963
v 0.190010 0.320523 -3.303983
v -0.190010 0.320523 -3.303983
v -0.190010 0.961568 -3.303983
v -0.190010 0.961568 -2.923963
v 0.190010 0.961568 -2.923963
v 0.190010 0.961568 -3.303983
v -0.157549 1.602613 -2.548793
v 0.157549 1.602613 -2.548793
v 0.190010 1.602613 -3.303983
v -0.190010 1.602613 -3.303983
v -0.190010 -1.602613 -3.303983
v -0.190010 -1.602613 -2.923963
v 0.190010 -1.602613 -2.923963
v 0.190010 -1.602613 -3.303983
v -0.190010 2.243658 -3.303983
v -0.190010 2.243658 -2.923963
v 0.190010 2.243658 -2.923963
v 0.190010 2.243658 -3.303983
v -0.190010 -2.243658 -2.923963
v 0.190010 -2.243658 -2.923963
v 0.190010 -2.243658 -3.303983
v -0.190010 -2.243658 -3.303983
v -0.190010 -0.320523 -0.288722
v 0.190010 -0.320523 -0.288722
v 0.161630 0.000000 -0.264122
v -0.161630 0.000000 -0.264122
v 0.190010 0.961568 -0.288722
v -0.190010 0.961568 -0.288722
v -0.190010 0.641045 -0.288722
v 0.190010 0.641045 -0.288722
v 0.157549 1.602613 -0.363756
v 0.190010 1.923135 -0.288722
v -0.157549 1.602613 -0.363756
v -0.190010 1.923135 -0.288722
v -0.309207 2.724098 -3.423180
v -0.309207 2.724098 -2.804766
v 0.309207 2.724098 -2.804766
v 0.309207 2.724098 -3.423180
vn -1.0000 -0.0000 -0.0000
vn -0.0000 -0.0000 -1.0000
vn 1.0000 -0.0000 -0.0000
vn -0.0000 -0.0000 1.0000
vn -0.0000 -1.0000 -0.0000
vn 0.8018 -0.5976 -0.0000
vn 0.9993 0.0285 -0.0241
vn -0.9993 0.0285 -0.0241
vn 0.9990 -0.0339 -0.0286
vn -0.9990 -0.0339 -0.0286
vn 0.9993 -0.0285 -0.0241
vn -0.0000 0.7937 -0.6083
vn -0.9993 -0.0285 -0.0241
vn -0.9990 0.0339 -0.0286
vn -0.0000 -0.7603 -0.6496
vn 0.9990 0.0339 -0.0286
vn -0.8285 0.5599 -0.0000
vn -0.0000 0.5599 -0.8285
vn 0.8285 0.5599 -0.0000
vn -0.0000 0.5599 0.8285
vn -0.0000 1.0000 -0.0000
vn -0.9961 0.0882 -0.0000
vn 0.9961 0.0882 -0.0000
vn -0.9949 -0.1008 -0.0000
vn 0.9949 -0.1008 -0.0000
vn -0.8018 -0.5976 -0.0000
vn -0.0000 -0.5976 0.8018
vn -0.0000 -0.5976 -0.8018
vn 0.9993 0.0285 0.0241
vn -0.9993 0.0285 0.0241
vn 0.9990 -0.0339 0.0286
vn -0.9990 -0.0339 0.0286
vn 0.9993 -0.0285 0.0241
vn -0.0000 0.7937 0.6083
vn -0.9993 -0.0285 0.0241
vn -0.9990 0.0339 0.0286
vn -0.0000 -0.7603 0.6496
vn 0.9990 0.0339 0.0286
vt 0.609375 0.000000
vt 0.625000 0.000000
vt 0.625000 0.250000
vt 0.609375 0.250000
vt 0.625000 0.500000
vt 0.609375 0.500000
vt 0.625000 0.750000
vt 0.609375 0.750000
vt 0.625000 1.000000
vt 0.609375 1.000000
vt 0.125000 0.500000
vt 0.375000 0.500000
vt 0.375000 0.750000
vt 0.125000 0.750000
vt 0.484375 0.750000
vt 0.500000 0.750000
vt 0.500000 1.000000
vt 0.484375 1.000000
vt 0.484375 0.500000
vt 0.500000 0.500000
vt 0.484375 0.000000
vt 0.500000 0.000000
vt 0.500000 0.250000
vt 0.484375 0.250000
vt 0.546875 0.750000
vt 0.562500 0.750000
vt 0.562500 1.000000
vt 0.546875 1.000000
vt 0.546875 0.500000
vt 0.562500 0.500000
vt 0.546875 0.250000
vt 0.562500 0.250000
vt 0.546875 0.000000
vt 0.562500 0.000000
vt 0.578125 0.750000
vt 0.593750 0.750000
vt 0.593750 1.000000
vt 0.578125 1.000000
vt 0.578125 0.500000
vt 0.593750 0.500000
vt 0.578125 0.000000
vt 0.593750 0.000000
vt 0.593750 0.250000
vt 0.578125 0.250000
vt 0.515625 0.000000
vt 0.531250 0.000000
vt 0.531250 0.250000
vt 0.515625 0.250000
vt 0.531250 0.500000
vt 0.515625 0.500000
vt 0.531250 0.750000
vt 0.515625 0.750000
vt 0.531250 1.000000
vt 0.515625 1.000000
vt 0.421875 0.000000
vt 0.437500 0.000000
vt 0.437500 0.250000
vt 0.421875 0.250000
vt 0.437500 0.500000
vt 0.421875 0.500000
vt 0.437500 0.750000
vt 0.421875 0.750000
vt 0.437500 1.000000
vt 0.421875 1.000000
vt 0.453125 0.000000
vt 0.468750 0.000000
vt 0.468750 0.250000
vt 0.453125 0.250000
vt 0.468750 0.500000
vt 0.453125 0.500000
vt 0.468750 0.750000
vt 0.453125 0.750000
vt 0.468750 1.000000
vt 0.453125 1.000000
vt 0.390625 0.750000
vt 0.406250 0.750000
vt 0.406250 1.000000
vt 0.390625 1.000000
vt 0.390625 0.500000
vt 0.406250 0.500000
vt 0.390625 0.250000
vt 0.406250 0.250000
vt 0.390625 0.000000
vt 0.406250 0.000000
vt 0.375000 0.000000
vt 0.375000 0.250000
vt 0.375000 1.000000
vt 0.875000 0.500000
vt 0.875000 0.750000
s 0
f 61/1/1 2/2/1 4/3/1 62/4/1
f 62/4/2 4/3/2 8/5/2 63/6/2
f 63/6/3 8/5/3 6/7/3 64/8/3
f 64/8/4 6/7/4 2/9/4 61/10/4
f 3/11/5 7/12/5 5/13/5 1/14/5
f 6/7/6 8/5/6 83/5/6 84/7/6
f 40/15/4 12/16/4 9/17/4 37/18/4
f 39/19/7 11/20/7 12/16/7 40/15/7
f 37/21/8 9/22/8 10/23/8 38/24/8
f 52/25/4 16/26/4 13/27/4 49/28/4
f 51/29/3 15/30/3 16/26/3 52/25/3
f 50/31/2 14/32/2 15/30/2 51/29/2
f 49/33/1 13/34/1 14/32/1 50/31/1
f 55/35/4 20/36/4 17/37/4 56/38/4
f 54/39/9 19/40/9 20/36/9 55/35/9
f 56/41/10 17/42/10 18/43/10 53/44/10
f 48/45/1 24/46/1 21/47/1 45/48/1
f 45/48/2 21/47/2 22/49/2 46/50/2
f 46/50/3 22/49/3 23/51/3 47/52/3
f 47/52/4 23/51/4 24/53/4 48/54/4
f 57/55/1 28/56/1 25/57/1 58/58/1
f 58/58/2 25/57/2 26/59/2 59/60/2
f 59/60/3 26/59/3 27/61/3 60/62/3
f 60/62/4 27/61/4 28/63/4 57/64/4
f 44/65/1 29/66/1 30/67/1 41/68/1
f 41/68/2 30/67/2 31/69/2 42/70/2
f 42/70/3 31/69/3 32/71/3 43/72/3
f 43/72/4 32/71/4 29/73/4 44/74/4
f 67/75/4 35/76/4 36/77/4 68/78/4
f 66/79/3 34/80/3 35/76/3 67/75/3
f 65/81/2 33/82/2 34/80/2 66/79/2
f 68/83/1 36/84/1 33/82/1 65/81/1
f 29/66/1 37/21/1 38/24/1 30/67/1
f 30/67/2 38/24/2 39/19/2 31/69/2
f 31/69/3 39/19/3 40/15/3 32/71/3
f 32/71/4 40/15/4 37/18/4 29/73/4
f 27/61/4 43/72/4 44/74/4 28/63/4
f 26/59/3 42/70/3 43/72/3 27/61/3
f 25/57/2 41/68/2 42/70/2 26/59/2
f 28/56/1 44/65/1 41/68/1 25/57/1
f 12/16/4 47/52/4 48/54/4 9/17/4
f 11/20/11 46/50/11 47/52/11 12/16/11
f 10/23/12 45/48/12 46/50/12 11/20/12
f 9/22/13 48/45/13 45/48/13 10/23/13
f 24/46/1 49/33/1 50/31/1 21/47/1
f 22/49/3 51/29/3 52/25/3 23/51/3
f 23/51/4 52/25/4 49/28/4 24/53/4
f 13/34/14 56/41/14 53/44/14 14/32/14
f 14/32/15 53/44/15 54/39/15 15/30/15
f 15/30/16 54/39/16 55/35/16 16/26/16
f 16/26/4 55/35/4 56/38/4 13/27/4
f 35/76/4 60/62/4 57/64/4 36/77/4
f 34/80/3 59/60/3 60/62/3 35/76/3
f 33/82/2 58/58/2 59/60/2 34/80/2
f 36/84/1 57/55/1 58/58/1 33/82/1
f 20/36/4 64/8/4 61/10/4 17/37/4
f 19/40/3 63/6/3 64/8/3 20/36/3
f 18/43/2 62/4/2 63/6/2 19/40/2
f 17/42/1 61/1/1 62/4/1 18/43/1
f 1/85/17 68/83/17 65/81/17 3/86/17
f 3/86/18 65/81/18 66/79/18 7/12/18
f 7/12/19 66/79/19 67/75/19 5/13/19
f 5/13/20 67/75/20 68/78/20 1/87/20
f 10/23/21 11/20/21 71/20/21 72/23/21
f 38/24/22 10/23/22 72/23/22 69/24/22
f 11/20/23 39/19/23 70/19/23 71/20/23
f 39/19/5 38/24/5 69/24/5 70/19/5
f 22/49/5 21/47/5 75/47/5 76/49/5
f 51/29/3 22/49/3 76/49/3 73/29/3
f 50/31/21 51/29/21 73/29/21 74/31/21
f 21/47/1 50/31/1 74/31/1 75/47/1
f 53/44/24 18/43/24 80/43/24 79/44/24
f 18/43/21 19/40/21 78/40/21 80/43/21
f 54/39/5 53/44/5 79/44/5 77/39/5
f 19/40/25 54/39/25 77/39/25 78/40/25
f 83/5/21 82/88/21 81/89/21 84/7/21
f 4/3/26 2/2/26 81/2/26 82/3/26
f 2/9/27 6/7/27 84/7/27 81/9/27
f 8/5/28 4/3/28 82/3/28 83/5/28
f 77/39/5 79/44/5 96/44/5 95/39/5
f 79/44/24 80/43/24 94/43/24 96/44/24
f 80/43/21 78/40/21 93/40/21 94/43/21
f 78/40/25 77/39/25 95/39/25 93/40/25
f 73/29/3 76/49/3 92/49/3 91/29/3
f 76/49/5 75/47/5 90/47/5 92/49/5
f 74/31/21 73/29/21 91/29/21 89/31/21
f 75/47/1 74/31/1 89/31/1 90/47/1
f 69/24/22 72/23/22 88/23/22 87/24/22
f 72/23/21 71/20/21 86/20/21 88/23/21
f 71/20/23 70/19/23 85/19/23 86/20/23
f 70/19/5 69/24/5 87/24/5 85/19/5
f 157/1/1 158/4/1 100/3/1 98/2/1
f 158/4/4 159/6/4 104/5/4 100/3/4
f 159/6/3 160/8/3 102/7/3 104/5/3
f 160/8/2 157/10/2 98/9/2 102/7/2
f 99/11/5 97/14/5 101/13/5 103/12/5
f 102/7/6 180/7/6 179/5/6 104/5/6
f 136/15/2 133/18/2 105/17/2 108/16/2
f 135/19/29 136/15/29 108/16/29 107/20/29
f 133/21/30 134/24/30 106/23/30 105/22/30
f 148/25/2 145/28/2 109/27/2 112/26/2
f 147/29/3 148/25/3 112/26/3 111/30/3
f 146/31/4 147/29/4 111/30/4 110/32/4
f 145/33/1 146/31/1 110/32/1 109/34/1
f 151/35/2 152/38/2 113/37/2 116/36/2
f 150/39/31 151/35/31 116/36/31 115/40/31
f 152/41/32 149/44/32 114/43/32 113/42/32
f 144/45/1 141/48/1 117/47/1 120/46/1
f 141/48/4 142/50/4 118/49/4 117/47/4
f 142/50/3 143/52/3 119/51/3 118/49/3
f 143/52/2 144/54/2 120/53/2 119/51/2
f 153/55/1 154/58/1 121/57/1 124/56/1
f 154/58/4 155/60/4 122/59/4 121/57/4
f 155/60/3 156/62/3 123/61/3 122/59/3
f 156/62/2 153/64/2 124/63/2 123/61/2
f 140/65/1 137/68/1 126/67/1 125/66/1
f 137/68/4 138/70/4 127/69/4 126/67/4
f 138/70/3 139/72/3 128/71/3 127/69/3
f 139/72/2 140/74/2 125/73/2 128/71/2
f 163/75/2 164/78/2 132/77/2 131/76/2
f 162/79/3 163/75/3 131/76/3 130/80/3
f 161/81/4 162/79/4 130/80/4 129/82/4
f 164/83/1 161/81/1 129/82/1 132/84/1
f 125/66/1 126/67/1 134/24/1 133/21/1
f 126/67/4 127/69/4 135/19/4 134/24/4
f 127/69/3 128/71/3 136/15/3 135/19/3
f 128/71/2 125/73/2 133/18/2 136/15/2
f 123/61/2 124/63/2 140/74/2 139/72/2
f 122/59/3 123/61/3 139/72/3 138/70/3
f 121/57/4 122/59/4 138/70/4 137/68/4
f 124/56/1 121/57/1 137/68/1 140/65/1
f 108/16/2 105/17/2 144/54/2 143/52/2
f 107/20/33 108/16/33 143/52/33 142/50/33
f 106/23/34 107/20/34 142/50/34 141/48/34
f 105/22/35 106/23/35 141/48/35 144/45/35
f 120/46/1 117/47/1 146/31/1 145/33/1
f 118/49/3 119/51/3 148/25/3 147/29/3
f 119/51/2 120/53/2 145/28/2 148/25/2
f 109/34/36 110/32/36 149/44/36 152/41/36
f 110/32/37 111/30/37 150/39/37 149/44/37
f 111/30/38 112/26/38 151/35/38 150/39/38
f 112/26/2 109/27/2 152/38/2 151/35/2
f 131/76/2 132/77/2 153/64/2 156/62/2
f 130/80/3 131/76/3 156/62/3 155/60/3
f 129/82/4 130/80/4 155/60/4 154/58/4
f 132/84/1 129/82/1 154/58/1 153/55/1
f 116/36/2 113/37/2 157/10/2 160/8/2
f 115/40/3 116/36/3 160/8/3 159/6/3
f 114/43/4 115/40/4 159/6/4 158/4/4
f 113/42/1 114/43/1 158/4/1 157/1/1
f 97/85/17 99/86/17 161/81/17 164/83/17
f 99/86/20 103/12/20 162/79/20 161/81/20
f 103/12/19 101/13/19 163/75/19 162/79/19
f 101/13/18 97/87/18 164/78/18 163/75/18
f 106/23/21 168/23/21 167/20/21 107/20/21
f 134/24/22 165/24/22 168/23/22 106/23/22
f 107/20/23 167/20/23 166/19/23 135/19/23
f 135/19/5 166/19/5 165/24/5 134/24/5
f 118/49/5 172/49/5 171/47/5 117/47/5
f 147/29/3 169/29/3 172/49/3 118/49/3
f 146/31/21 170/31/21 169/29/21 147/29/21
f 117/47/1 171/47/1 170/31/1 146/31/1
f 149/44/24 175/44/24 176/43/24 114/43/24
f 114/43/21 176/43/21 174/40/21 115/40/21
f 150/39/5 173/39/5 175/44/5 149/44/5
f 115/40/25 174/40/25 173/39/25 150/39/25
f 179/5/21 180/7/21 177/89/21 178/88/21
f 100/3/26 178/3/26 177/2/26 98/2/26
f 98/9/28 177/9/28 180/7/28 102/7/28
f 104/5/27 179/5/27 178/3/27 100/3/27
f 173/39/5 95/39/5 96/44/5 175/44/5
f 175/44/24 96/44/24 94/43/24 176/43/24
f 176/43/21 94/43/21 93/40/21 174/40/21
f 174/40/25 93/40/25 95/39/25 173/39/25
f 169/29/3 91/29/3 92/49/3 172/49/3
f 172/49/5 92/49/5 90/47/5 171/47/5
f 170/31/21 89/31/21 91/29/21 169/29/21
f 171/47/1 90/47/1 89/31/1 170/31/1
f 165/24/22 87/24/22 88/23/22 168/23/22
f 168/23/21 88/23/21 86/20/21 167/20/21
f 167/20/23 86/20/23 85/19/23 166/19/23
f 166/19/5 85/19/5 87/24/5 165/24/5
